<svg xmlns="http://www.w3.org/2000/svg" xmlns:xlink="http://www.w3.org/1999/xlink" width="120" height="24" viewBox="0 0 120 24">
    <defs>
        <path id="a" d="M120 24V0H0v24h120z"/>
    </defs>
    <g fill="none" fill-rule="evenodd">
        <mask id="b" fill="#fff">
            <use xlink:href="#a"/>
        </mask>
        <path fill="#FFF" d="M119.157 6.293c-.432.522-1.239 1.143-2.63 1.143h-1.463v12.6c0 1.42-.571 2.284-1.05 2.76-.678.67-1.576 1.025-2.6 1.025-1.031 0-1.934-.355-2.611-1.026-.479-.474-1.05-1.338-1.05-2.76V7.436h-1.464c-1.358 0-2.164-.612-2.601-1.126a3.677 3.677 0 0 1-.872-2.42c0-.592.141-1.164.42-1.699a3.394 3.394 0 0 1 1.258-1.348 3.39 3.39 0 0 1 1.795-.498h10.239c.65 0 1.253.168 1.795.498a3.4 3.4 0 0 1 1.257 1.348c.279.536.42 1.108.42 1.7 0 .905-.292 1.735-.843 2.402zm-17.143 13.85a8.026 8.026 0 0 1-3.22 2.88c-1.3.648-2.73.977-4.254.977-1.74 0-3.44-.265-5.052-.786-2.86-.926-3.288-2.892-3.288-3.981 0-.961.316-1.825.915-2.497.9-1.011 2.241-1.35 3.833-.901.363.102.804.245 1.348.438.46.162.863.288 1.197.373.255.064.53.097.816.097.36 0 .648-.052.86-.155.197-.096.272-.193.311-.258a.772.772 0 0 0 .102-.456c-.411-.165-1.27-.472-3.051-1.044-2.008-.645-3.472-1.397-4.477-2.3-1.176-1.057-1.772-2.578-1.772-4.52 0-1.598.405-3.033 1.203-4.264a7.868 7.868 0 0 1 3.16-2.799A9.197 9.197 0 0 1 94.757 0c.75 0 1.59.101 2.572.31 1.058.225 1.999.612 2.796 1.15 1.066.719 1.653 1.77 1.653 2.962 0 .953-.309 1.824-.892 2.518-.646.767-1.524 1.173-2.54 1.173-.416 0-.856-.075-1.305-.222a21.678 21.678 0 0 1-.981-.35 5.06 5.06 0 0 0-.719-.217 3.246 3.246 0 0 0-.693-.067c-.233 0-.395.04-.512.09.073.034.161.07.268.108.99.356 2.113.745 3.34 1.155 1.467.491 2.73 1.27 3.754 2.315 1.151 1.175 1.735 2.828 1.735 4.912 0 1.596-.41 3.045-1.22 4.306zm-16.852 1.61a3.353 3.353 0 0 1-1.27 1.395c-.545.336-1.18.507-1.887.507h-7.18c-1.013 0-1.916-.353-2.613-1.022-.722-.692-1.104-1.624-1.104-2.696V4.395c0-1.117.311-2.06.924-2.803.469-.569 1.339-1.247 2.82-1.247h6.908c1.365 0 2.182.6 2.628 1.102.597.673.913 1.518.913 2.444a3.63 3.63 0 0 1-.419 1.717c-.285.539-.7.981-1.23 1.314-.545.341-1.182.514-1.892.514h-3.34v.929h3c1.366 0 2.193.576 2.646 1.06.63.673.963 1.534.963 2.492 0 .919-.336 1.767-.97 2.451-.46.496-1.292 1.088-2.639 1.088h-3v1.108h3.585c1.373 0 2.193.596 2.639 1.097.599.673.915 1.522.915 2.455 0 .552-.133 1.103-.397 1.637zM66.286 8.365c1.364 0 2.184.585 2.633 1.075.612.671.935 1.518.935 2.45 0 .925-.322 1.774-.93 2.456-.451.506-1.276 1.11-2.638 1.11h-2.755v4.577c0 1.422-.571 2.287-1.05 2.762-.678.67-1.577 1.026-2.6 1.026-1.013 0-1.912-.36-2.598-1.04-.485-.482-1.064-1.35-1.064-2.748V4.146c0-.992.347-1.9 1.003-2.628.693-.768 1.64-1.173 2.741-1.173h7.125c1.328 0 2.129.62 2.566 1.14.567.673.866 1.505.866 2.406 0 .905-.304 1.74-.879 2.414-.633.74-1.515 1.131-2.553 1.131h-3.557v.929h2.755zM55.281 5.449L49.196 21.18l-.009.023c-.295.73-.683 1.323-1.154 1.765-.602.565-1.397.852-2.364.852-.966 0-1.757-.282-2.349-.837-.468-.438-.845-1.02-1.153-1.776a1.396 1.396 0 0 1-.01-.025L36.05 5.433a4.682 4.682 0 0 1-.3-1.632 3.46 3.46 0 0 1 1.176-2.642 3.75 3.75 0 0 1 2.542-.98c.822 0 2.344.296 3.299 2.272.023.048.043.096.061.146l2.842 7.755 2.852-7.757c.015-.04.032-.08.05-.12.925-1.997 2.47-2.296 3.31-2.296.961 0 1.844.34 2.555.985A3.472 3.472 0 0 1 55.6 3.801c0 .564-.107 1.118-.319 1.648zM34.765 21.753a3.355 3.355 0 0 1-1.27 1.395c-.546.336-1.181.507-1.887.507h-7.18c-1.013 0-1.917-.353-2.613-1.022-.722-.692-1.104-1.624-1.104-2.696V4.395c0-1.117.31-2.06.924-2.803.468-.57 1.339-1.247 2.82-1.247h6.908c1.364 0 2.182.6 2.627 1.102.598.673.913 1.518.913 2.444 0 .615-.14 1.193-.418 1.717-.286.54-.7.981-1.23 1.314-.545.341-1.182.514-1.892.514h-3.34v.929h3c1.365 0 2.192.576 2.646 1.06.63.673.962 1.534.962 2.492 0 .919-.335 1.766-.97 2.451-.46.496-1.29 1.088-2.638 1.088h-3v1.108h3.585c1.373 0 2.193.596 2.639 1.097.598.672.915 1.521.915 2.455 0 .552-.134 1.103-.397 1.637zm-15.827-4.897c-.525 1.41-1.296 2.642-2.293 3.659a10.094 10.094 0 0 1-3.598 2.345c-1.361.527-2.853.795-4.435.795h-4.84c-.549 0-1.09-.11-1.61-.327a3.537 3.537 0 0 1-1.508-1.21C.22 21.524 0 20.789 0 19.938V4.118c0-1.07.375-2.008 1.084-2.712.7-.694 1.61-1.061 2.633-1.061H8.34c1.75 0 3.345.283 4.743.842 1.429.572 2.656 1.4 3.65 2.463.99 1.06 1.747 2.351 2.249 3.837.485 1.436.73 3.047.73 4.79 0 1.658-.26 3.198-.774 4.579z" mask="url(#b)"/>
    </g>
</svg>
