<svg xmlns="http://www.w3.org/2000/svg" width="1440" height="1529" viewBox="0 0 1440 1529">
    <g fill="none" fill-rule="evenodd" stroke-width="5">
        <path stroke="#0F9D58" stroke-linecap="round" stroke-linejoin="round" d="M198 334c0 8.284-6.716 15-15 15-8.284 0-15-6.716-15-15 0-8.284 6.716-15 15-15 8.284 0 15 6.716 15 15z"/>
        <path stroke="#FFC107" d="M126.603 403.97l-82.632 82.633a8.185 8.185 0 0 1-11.574-11.574l82.633-82.632a8.184 8.184 0 0 1 11.573 11.573z"/>
        <g stroke="#0F9D58" stroke-linecap="round" stroke-linejoin="round">
            <path d="M1310.69 739.713l27.926-28.021M1335.699 739.713l27.926-28.021M1360.708 739.713l27.926-28.021"/>
        </g>
        <g stroke="#0F9D58" stroke-linecap="round" stroke-linejoin="round">
            <path d="M864.69 808.713l27.926-28.021M889.699 808.713l27.926-28.021M914.708 808.713l27.926-28.021"/>
        </g>
        <g stroke="#0F9D58" stroke-linecap="round" stroke-linejoin="round">
            <path d="M443.69 128.713l27.926-28.021M468.699 128.713l27.926-28.021M493.708 128.713l27.926-28.021"/>
        </g>
        <path stroke="#0068FF" stroke-linecap="round" stroke-linejoin="round" d="M1444 626l-31.622-31.897-31.196 31.467-31.189-31.46-30.442 30.707L1289 594M138 1106l-31.622-31.897-31.196 31.467-31.189-31.46-30.442 30.707L-17 1074"/>
        <path stroke="#DB4437" stroke-linecap="round" stroke-linejoin="round" d="M1010 642l28-28M1300 531l26-28M49 990l90.754-90.754"/>
        <path stroke="#FFC107" d="M1324 354c0 13.807-11.193 25-25 25s-25-11.193-25-25 11.193-25 25-25 25 11.193 25 25zM445 1087c0 13.807-11.193 25-25 25s-25-11.193-25-25 11.193-25 25-25 25 11.193 25 25z"/>
        <path stroke="#0068FF" stroke-linecap="round" stroke-linejoin="round" d="M1245.425 209.519c8.591 8.592 8.75 22.363.353 30.76-8.396 8.396-22.167 8.237-30.759-.354M338.425 993.519c8.591 8.592 8.75 22.363.353 30.76-8.396 8.396-22.167 8.237-30.759-.354M278 727c-12.15 0-22-9.85-22-22v-22h44v22c0 12.15-9.85 22-22 22z"/>
        <g stroke="#DB4437" stroke-linecap="round" stroke-linejoin="round">
            <path d="M1350.69 260.713l27.926-28.021M1375.699 260.713l27.926-28.021M1400.708 260.713l27.926-28.021"/>
        </g>
        <g stroke="#DB4437" stroke-linecap="round" stroke-linejoin="round">
            <path d="M491.69 1046.713l27.926-28.021M516.699 1046.713l27.926-28.021M541.708 1046.713l27.926-28.021"/>
        </g>
        <g stroke="#DB4437" stroke-linecap="round" stroke-linejoin="round">
            <path d="M20.69 240.713l27.926-28.021M45.699 240.713l27.926-28.021M70.708 240.713l27.926-28.021"/>
        </g>
        <g stroke="#DB4437" stroke-linecap="round" stroke-linejoin="round">
            <path d="M1215.69 1416.713l27.926-28.021M1240.699 1416.713l27.926-28.021M1265.708 1416.713l27.926-28.021"/>
        </g>
        <path stroke="#0F9D58" stroke-linecap="round" stroke-linejoin="round" d="M20 680l35.091 34.887 34.617-34.417 34.61 34.41 33.78-33.587L192 715M920 1309l35.091 34.887 34.617-34.417 34.61 34.41 33.78-33.587L1092 1344"/>
        <path stroke="#DB4437" stroke-linecap="round" stroke-linejoin="round" d="M90 557.5L49 578v-41zM1163 126l23.665 22.926 23.348-22.617 23.34 22.612 22.782-22.071L1279 149M217 832l37.13 36.88 36.631-36.383 36.621 36.376 35.744-35.506L399 869"/>
        <path stroke="#0F9D58" stroke-linecap="round" stroke-linejoin="round" d="M342.054 26.002L206.003 162.053c-5.263 5.263-13.794 5.263-19.057 0-5.261-5.263-5.261-13.793 0-19.057L322.999 6.947c5.261-5.263 13.794-5.263 19.055 0 5.261 5.261 5.261 13.794 0 19.055zM1540.466 1357.603l-121.862 121.862c-4.714 4.713-12.356 4.713-17.07 0-4.712-4.714-4.712-12.354 0-17.07l121.864-121.86c4.712-4.713 12.355-4.713 17.068 0 4.712 4.713 4.712 12.356 0 17.068zM1460.078 72.002l-135.216 136.051a13.334 13.334 0 0 1-18.94 0c-5.23-5.263-5.23-13.793 0-19.057L1441.14 52.947a13.332 13.332 0 0 1 18.938 0c5.23 5.261 5.23 13.794 0 19.055zM601.078 807.002L465.862 943.053a13.334 13.334 0 0 1-18.94 0c-5.23-5.263-5.23-13.793 0-19.057L582.14 787.947a13.332 13.332 0 0 1 18.938 0c5.23 5.261 5.23 13.794 0 19.055z"/>
        <path stroke="#0068FF" stroke-linecap="round" stroke-linejoin="round" d="M134.328 288.236L-26.764 449.328c-6.231 6.23-16.332 6.23-22.564 0-6.23-6.233-6.23-16.333 0-22.564l161.093-161.09c6.23-6.232 16.333-6.232 22.563 0 6.23 6.23 6.23 16.332 0 22.562zM1479.328 1322.236l-161.092 161.092c-6.231 6.23-16.332 6.23-22.564 0-6.23-6.233-6.23-16.333 0-22.564l161.093-161.09c6.23-6.232 16.333-6.232 22.563 0 6.23 6.23 6.23 16.332 0 22.562z"/>
        <g stroke="#FFC107">
            <path d="M1268.818 651.872c0 20.916-16.973 37.872-37.91 37.872-20.935 0-37.908-16.956-37.908-37.872S1209.973 614 1230.909 614s37.909 16.956 37.909 37.872zM1232.977 614v75.744M1232.977 673.218l34.462-34.43M1232.977 653.938l26.191-26.166M1232.977 637.412l16.542-17.903M1234.355 689.744l35.841-35.806"/>
        </g>
        <path stroke="#0068FF" stroke-linecap="round" stroke-linejoin="round" d="M107 489l78-78M1153 1366l78-78M1447 403.5c0 20.71-17.013 37.5-38 37.5s-38-16.79-38-37.5 17.013-37.5 38-37.5 38 16.79 38 37.5z"/>
        <g stroke="#0F9D58" stroke-linecap="round" stroke-linejoin="round">
            <path d="M130.714 610.357c0-15.267 12.376-27.643 27.643-27.643 15.267 0 27.643 12.376 27.643 27.643C186 625.624 173.624 638 158.357 638c-15.267 0-27.643-12.376-27.643-27.643zM159.739 638v-55.286M159.739 586.86l-26.261 26.261M159.739 602.064l-22.115 22.114M156.975 622.796l-12.44 12.44"/>
        </g>
        <g stroke="#0F9D58" stroke-linecap="round" stroke-linejoin="round">
            <path d="M1429.685 537.343c0 12.892-10.45 23.342-23.342 23.342S1383 550.235 1383 537.343 1393.451 514 1406.343 514c12.891 0 23.342 10.45 23.342 23.343zM1406.343 514v46.685M1406.343 559.312l23.342-23.342M1406.343 542.835l19.223-19.223M1406.343 527.73l9.611-9.61"/>
        </g>
        <g stroke="#0F9D58" stroke-linecap="round" stroke-linejoin="round">
            <path d="M240.685 1001.343c0 12.892-10.45 23.342-23.342 23.342S194 1014.235 194 1001.343 204.451 978 217.343 978c12.891 0 23.342 10.45 23.342 23.343zM217.343 978v46.685M217.343 1023.312l23.342-23.342M217.343 1006.835l19.223-19.223M217.343 991.73l9.611-9.61"/>
        </g>
        <g stroke="#FFC107">
            <path d="M137.048 135.024c0 19.344-15.681 35.024-35.024 35.024-19.344 0-35.024-15.68-35.024-35.024S82.68 100 102.024 100c19.343 0 35.024 15.68 35.024 35.024zM101.337 100v70.048M101.337 165.928l34.337-34.338M101.337 145.325l28.844-28.843M102.71 124.723l16.483-16.482"/>
        </g>
        <g stroke="#FFC107">
            <path d="M1084.048 1426.024c0 19.344-15.681 35.024-35.024 35.024-19.344 0-35.024-15.68-35.024-35.024s15.68-35.024 35.024-35.024c19.343 0 35.024 15.68 35.024 35.024zM1048.337 1391v70.048M1048.337 1456.928l34.337-34.338M1048.337 1436.325l28.844-28.843M1049.71 1415.723l16.483-16.482"/>
        </g>
        <path stroke="#0068FF" stroke-linecap="round" stroke-linejoin="round" d="M1014.906 717.815c8.367-8.366 16.145-.588 24.512-8.955 8.368-8.367.59-16.146 8.958-24.514 8.367-8.367 16.145-.59 24.514-8.957 8.366-8.367.588-16.145 8.955-24.512 8.367-8.368 16.146-.59 24.514-8.958 8.367-8.367.59-16.145 8.956-24.513M528.57 760.688c4.3-4.3 8.543-.058 12.844-4.36 4.302-4.301.06-8.544 4.361-12.846 4.302-4.302 8.545-.059 12.847-4.36 4.3-4.302.058-8.545 4.36-12.846 4.301-4.302 8.544-.059 12.846-4.361 4.301-4.302.059-8.544 4.36-12.846"/>
        <path stroke="#DB4437" stroke-linecap="round" stroke-linejoin="round" d="M281.4 166.094c11.325 11.326 11.483 29.53.353 40.66-11.13 11.129-29.333 10.97-40.659-.355M1215.094 776.6c11.326-11.325 29.53-11.483 40.66-.353 11.129 11.13 10.97 29.333-.355 40.659M1134.4 1477.094c11.325 11.326 11.483 29.53.353 40.66-11.13 11.129-29.333 10.97-40.659-.355"/>
        <path stroke="#FFC107" stroke-linecap="round" stroke-linejoin="round" d="M99 835.5c0 14.635-11.762 26.5-26.271 26.5H49v-53h23.729C87.239 809 99 820.865 99 835.5zM394 86.5c0 14.635-11.762 26.5-26.271 26.5H344V60h23.729C382.239 60 394 71.865 394 86.5zM628.094 871.127c5.563-5.562 13.34 2.216 18.904-3.347 5.567-5.567-2.211-13.345 3.355-18.911 5.566-5.567 13.345 2.212 18.912-3.356 5.563-5.563-2.215-13.34 3.347-18.903 4.523-4.523 10.505-.236 15.576-1.455"/>
        <path stroke="#0F9D58" stroke-linecap="round" stroke-linejoin="round" d="M1300 1302c7.866 0 7.866 11 15.734 11 7.873 0 7.873-11 15.745-11 7.871 0 7.871 11 15.745 11 7.867 0 7.867-11 15.733-11 6.397 0 7.596 7.261 12.043 9.985M1249 429c7.866 0 7.866 11 15.734 11 7.873 0 7.873-11 15.745-11 7.871 0 7.871 11 15.745 11 7.867 0 7.867-11 15.733-11 6.397 0 7.596 7.261 12.043 9.985"/>
        <path stroke="#FFC107" stroke-linecap="round" stroke-linejoin="round" d="M1051 148V69h79z"/>
    </g>
</svg>
